<svg xmlns="http://www.w3.org/2000/svg" viewBox="0 0 280 48" fill="none">
  <!-- Brain icon -->
  <g transform="translate(0, 4)" fill="#2196F3" stroke="#2196F3" stroke-width="0.5">
    <path d="M20 4C16.5 4 13.5 6 12 9C9 8 5.5 10 5 13.5C2.5 14 0.5 16.5 1 19.5C0 21 0 23.5 1.5 25.5C1 27.5 1.5 30 3.5 31.5C4 34 6 36 8.5 36C10 38 12.5 39 15 38.5C16.5 40 19 40.5 21 39.5V24H19V39.5C17.5 40 15.5 39.5 14.5 38L14 37.5L13 38C11 38.5 9 37.5 8 36L7.5 35H6.5C4.5 35 3 33.5 2.5 31.5L2.3 31L1.8 30.7C0.5 29.5 0 27.5 0.8 25.8L1.2 25L0.7 24.3C-0.3 22.8 -0.1 20.8 1 19.5L1.5 19L1.3 18.3C0.8 16 2.5 14 4.5 13.5L5.2 13.3L5 12.5C5 10.5 7 8.8 9 9.2L9.8 9.4L10.3 8.7C11.5 6.5 14 5 16.5 5H17V4H20Z"/>
    <path d="M20 4V5H23.5C26 5 28.5 6.5 29.7 8.7L30.2 9.4L31 9.2C33 8.8 35 10.5 35 12.5L34.8 13.3L35.5 13.5C37.5 14 39.2 16 38.7 18.3L38.5 19L39 19.5C40.1 20.8 40.3 22.8 39.3 24.3L38.8 25L39.2 25.8C40 27.5 39.5 29.5 38.2 30.7L37.7 31L37.5 31.5C37 33.5 35.5 35 33.5 35H32.5L32 36C31 37.5 29 38.5 27 38L26 37.5L25.5 38C24.5 39.5 22.5 40 21 39.5V24H23V39.5C25 40.5 27.5 40 29 38.5C31.5 39 34 38 35.5 36C38 36 40 34 40.5 31.5C42.5 30 43 27.5 42.5 25.5C44 23.5 44 21 43 19.5C43.5 16.5 41.5 14 39 13.5C38.5 10 35 8 32 9C30.5 6 27.5 4 24 4H20Z"/>
    <!-- Center connections -->
    <circle cx="20" cy="16" r="1.5"/>
    <circle cx="15" cy="22" r="1"/>
    <circle cx="25" cy="22" r="1"/>
    <circle cx="20" cy="28" r="1"/>
    <line x1="20" y1="16" x2="15" y2="22" stroke-width="1"/>
    <line x1="20" y1="16" x2="25" y2="22" stroke-width="1"/>
    <line x1="15" y1="22" x2="20" y2="28" stroke-width="1"/>
    <line x1="25" y1="22" x2="20" y2="28" stroke-width="1"/>
  </g>
  <!-- Text -->
  <text x="52" y="34" font-family="system-ui, -apple-system, sans-serif" font-size="28" font-weight="700" letter-spacing="3" fill="#2196F3">CONDUCTIV</text>
</svg>
