<svg xmlns="http://www.w3.org/2000/svg" viewBox="0 0 48 48" fill="none">
  <defs>
    <linearGradient id="swirl1" x1="0" y1="0" x2="1" y2="1">
      <stop offset="0%" stop-color="#0044CC"/>
      <stop offset="50%" stop-color="#2266EE"/>
      <stop offset="100%" stop-color="#4488FF"/>
    </linearGradient>
    <linearGradient id="swirl2" x1="1" y1="0" x2="0" y2="1">
      <stop offset="0%" stop-color="#0033AA"/>
      <stop offset="100%" stop-color="#1155DD"/>
    </linearGradient>
    <radialGradient id="highlight" cx="0.4" cy="0.3">
      <stop offset="0%" stop-color="#6699FF" stop-opacity="0.6"/>
      <stop offset="100%" stop-color="#0044CC" stop-opacity="0"/>
    </radialGradient>
  </defs>
  <!-- Outer swirl -->
  <path d="M24 2C12 2 2 12 2 24C2 36 12 46 24 46C30 46 35 43 38 39C40 36 42 32 42 27C42 20 38 16 34 16C28 16 24 20 24 24C24 26 25 28 28 28C30 28 32 26 32 24C30 28 26 30 22 28C18 26 18 20 22 16C26 12 34 12 40 18C44 22 46 28 44 34C42 40 36 46 28 46" stroke="url(#swirl1)" stroke-width="4" stroke-linecap="round" fill="none"/>
  <!-- Inner accent -->
  <path d="M24 8C16 8 8 16 8 24C8 30 12 36 18 40" stroke="url(#swirl2)" stroke-width="3.5" stroke-linecap="round" fill="none"/>
  <!-- Center diamond sparkle -->
  <path d="M24 18L26 24L24 30L22 24Z" fill="white" opacity="0.8"/>
  <!-- Highlight overlay -->
  <circle cx="20" cy="18" r="12" fill="url(#highlight)"/>
</svg>
